<svg width="72" height="72" viewBox="0 0 72 72" fill="none" xmlns="http://www.w3.org/2000/svg">
<path fill-rule="evenodd" clip-rule="evenodd" d="M38.8798 1.69691C38.2483 1.52875 37.576 1.61784 37.0101 1.94465C36.4442 2.27147 36.0309 2.80933 35.861 3.44034L23.8627 48.2243C23.6947 48.8565 23.7845 49.5295 24.1124 50.0956C24.4402 50.6616 24.9793 51.0743 25.6113 51.2432L56.8953 59.626C57.5274 59.794 58.2005 59.7042 58.7665 59.3764C59.3325 59.0485 59.7453 58.5094 59.9141 57.8775L71.9227 13.0986C72.0066 12.7852 72.028 12.4584 71.9855 12.1368C71.9431 11.8151 71.8376 11.505 71.6752 11.2242C71.5128 10.9433 71.2967 10.6972 71.0391 10.5C70.7815 10.3027 70.4876 10.1582 70.1741 10.0746L38.8798 1.69691ZM17.6553 46.5581L25.8633 15.9323L1.83069 22.3661C1.51722 22.4496 1.22329 22.5942 0.96572 22.7914C0.708149 22.9887 0.491985 23.2348 0.329589 23.5156C0.167192 23.7965 0.061747 24.1066 0.0192838 24.4282C-0.0231793 24.7498 -0.00182811 25.0767 0.0821166 25.39L12.0907 70.1689C12.2595 70.8009 12.6723 71.34 13.2383 71.6678C13.8044 71.9957 14.4774 72.0855 15.1095 71.9175L46.3987 63.5346L46.517 63.4986L23.9398 57.4558C22.8107 57.1532 21.7523 56.6312 20.825 55.9194C19.8978 55.2077 19.1199 54.3202 18.5358 53.3076C17.9517 52.2951 17.5728 51.1774 17.4208 50.0184C17.2689 48.8594 17.3468 47.6818 17.6501 46.5529L17.6553 46.5581Z" fill="#D6A067"/>
</svg>
